<svg xmlns="http://www.w3.org/2000/svg" width="40" height="40" viewBox="0 0 40 40">
  <defs>
    <style>
      .cls-1 {
        fill: #9600ff;
        fill-rule: evenodd;
      }
    </style>
  </defs>
  <path class="cls-1" d="M33.393,26.694L40,33.33l-6.663,6.693L26.671,33.33l6.572-6.6-6.576-6.6-6.575,6.6,6.571,6.6L20,40.022,13.338,33.33l6.572-6.6-6.576-6.6-6.575,6.6,6.57,6.6L6.667,40.022,0,33.33l6.605-6.636L0,20l6.605-6.694L0,6.672,6.667-.022l6.662,6.694-6.6,6.634,5.623,5.7L13.333,20l0.985-.99,5.624-5.7L13.338,6.672,20-.022l6.662,6.694-6.6,6.634,5.782,5.862L26.667,20l0.821-.825,5.788-5.866L26.671,6.672,33.335-.022,40,6.672l-6.6,6.634L40,20Z"/>
</svg>
