<?xml version="1.0" encoding="utf-8"?>
<!-- Generator: Adobe Illustrator 23.0.5, SVG Export Plug-In . SVG Version: 6.00 Build 0)  -->
<svg version="1.1"
	 id="svg2" xmlns:cc="http://creativecommons.org/ns#" xmlns:dc="http://purl.org/dc/elements/1.1/" xmlns:rdf="http://www.w3.org/1999/02/22-rdf-syntax-ns#"
	 xmlns="http://www.w3.org/2000/svg" xmlns:xlink="http://www.w3.org/1999/xlink" x="0px" y="0px" viewBox="0 0 54 44.3"
	 style="enable-background:new 0 0 54 44.3;" xml:space="preserve">
<g id="layer1" transform="translate(3.7129 -62.36)">
	<g id="flowRoot3336" transform="matrix(1.8595,0,0,1.8595,-30.174,333.87)">
		<path id="path4379" d="M17.5-135c0.5,0,0.9,0.1,1.2,0.4c0.3,0.3,0.4,0.6,0.5,0.9h-0.5c-0.1-0.3-0.2-0.5-0.4-0.6
			c-0.2-0.2-0.4-0.2-0.8-0.2c-0.4,0-0.7,0.1-1,0.4c-0.2,0.3-0.4,0.7-0.4,1.3c0,0.5,0.1,0.9,0.3,1.2c0.2,0.3,0.6,0.4,1,0.4
			c0.4,0,0.7-0.2,0.9-0.5c0.1-0.2,0.2-0.4,0.3-0.7h0.5c0,0.4-0.2,0.8-0.5,1.1c-0.3,0.4-0.8,0.5-1.3,0.5c-0.5,0-0.9-0.1-1.2-0.4
			c-0.4-0.4-0.6-1-0.6-1.8c0-0.6,0.2-1.1,0.5-1.5C16.4-134.8,16.9-135,17.5-135L17.5-135z"/>
		<path id="path4381" d="M20.3-132.1c0,0.2,0.1,0.4,0.2,0.6c0.2,0.3,0.5,0.4,1,0.4c0.2,0,0.4,0,0.6-0.1c0.3-0.1,0.5-0.3,0.5-0.6
			c0-0.2-0.1-0.4-0.2-0.5c-0.1-0.1-0.4-0.2-0.7-0.2l-0.6-0.1c-0.4-0.1-0.6-0.2-0.8-0.3c-0.3-0.2-0.4-0.4-0.4-0.8
			c0-0.4,0.1-0.7,0.4-0.9c0.3-0.2,0.6-0.4,1.1-0.4c0.4,0,0.8,0.1,1.1,0.3c0.3,0.2,0.5,0.5,0.5,1h-0.5c0-0.2-0.1-0.4-0.2-0.5
			c-0.2-0.2-0.5-0.3-0.9-0.3c-0.3,0-0.6,0.1-0.7,0.2c-0.1,0.1-0.2,0.3-0.2,0.5c0,0.2,0.1,0.3,0.3,0.4c0.1,0.1,0.4,0.1,0.7,0.2
			L22-133c0.3,0.1,0.5,0.1,0.6,0.3c0.3,0.2,0.4,0.5,0.4,0.8c0,0.5-0.2,0.8-0.5,1c-0.3,0.2-0.7,0.3-1.1,0.3c-0.5,0-0.9-0.1-1.2-0.4
			c-0.3-0.3-0.4-0.6-0.4-1L20.3-132.1L20.3-132.1z"/>
		<path id="path4383" d="M24.1-132.1c0,0.2,0.1,0.4,0.2,0.6c0.2,0.3,0.5,0.4,1,0.4c0.2,0,0.4,0,0.6-0.1c0.3-0.1,0.5-0.3,0.5-0.6
			c0-0.2-0.1-0.4-0.2-0.5c-0.1-0.1-0.4-0.2-0.7-0.2l-0.6-0.1c-0.4-0.1-0.6-0.2-0.8-0.3c-0.3-0.2-0.4-0.4-0.4-0.8
			c0-0.4,0.1-0.7,0.4-0.9c0.3-0.2,0.6-0.4,1.1-0.4c0.4,0,0.8,0.1,1.1,0.3c0.3,0.2,0.5,0.5,0.5,1h-0.5c0-0.2-0.1-0.4-0.2-0.5
			c-0.2-0.2-0.5-0.3-0.9-0.3c-0.3,0-0.6,0.1-0.7,0.2c-0.1,0.1-0.2,0.3-0.2,0.5c0,0.2,0.1,0.3,0.3,0.4c0.1,0.1,0.4,0.1,0.7,0.2
			l0.6,0.1c0.3,0.1,0.5,0.1,0.6,0.3c0.3,0.2,0.4,0.5,0.4,0.8c0,0.5-0.2,0.8-0.5,1c-0.3,0.2-0.7,0.3-1.1,0.3c-0.5,0-0.9-0.1-1.2-0.4
			c-0.3-0.3-0.4-0.6-0.4-1L24.1-132.1L24.1-132.1z"/>
		<path id="path4385" d="M15.8-127.7h0.8l1.2,3.5l1.2-3.5h0.8v4.1h-0.5v-2.4c0-0.1,0-0.2,0-0.4c0-0.2,0-0.4,0-0.6l-1.2,3.4h-0.5
			l-1.2-3.4v0.1c0,0.1,0,0.3,0,0.5c0,0.2,0,0.4,0,0.5v2.4h-0.5L15.8-127.7L15.8-127.7z"/>
		<path id="path4387" d="M22.3-127.9c0.7,0,1.3,0.2,1.6,0.7c0.3,0.4,0.4,0.8,0.4,1.4c0,0.6-0.2,1.1-0.5,1.5
			c-0.4,0.5-0.9,0.7-1.6,0.7c-0.6,0-1.1-0.2-1.5-0.6c-0.3-0.4-0.5-0.9-0.5-1.5c0-0.6,0.1-1,0.4-1.4
			C21.1-127.6,21.6-127.9,22.3-127.9L22.3-127.9z M22.4-124c0.5,0,0.8-0.2,1.1-0.5c0.2-0.4,0.3-0.8,0.3-1.2c0-0.5-0.1-0.9-0.4-1.2
			c-0.3-0.3-0.6-0.4-1-0.4c-0.4,0-0.8,0.1-1,0.4c-0.3,0.3-0.4,0.7-0.4,1.3c0,0.5,0.1,0.8,0.3,1.1C21.5-124.2,21.8-124,22.4-124
			L22.4-124z"/>
		<path id="path4389" d="M26.5-124.1c0.2,0,0.3,0,0.5-0.1c0.2-0.1,0.4-0.2,0.5-0.4c0.1-0.2,0.2-0.4,0.2-0.6c0-0.2,0-0.3,0-0.4
			c0-0.5-0.1-0.9-0.3-1.2c-0.2-0.3-0.5-0.4-1-0.4h-1v3.1L26.5-124.1L26.5-124.1z M25-127.7h1.7c0.6,0,1,0.2,1.3,0.6
			c0.3,0.4,0.4,0.8,0.4,1.4c0,0.4-0.1,0.8-0.2,1.2c-0.3,0.6-0.8,0.9-1.5,0.9H25L25-127.7L25-127.7z"/>
		<path id="path4391" d="M29.7-127.7v2.5c0,0.3,0.1,0.5,0.2,0.7c0.2,0.3,0.4,0.4,0.8,0.4c0.5,0,0.8-0.2,1-0.5
			c0.1-0.2,0.1-0.4,0.1-0.7v-2.5h0.6v2.3c0,0.5-0.1,0.9-0.2,1.2c-0.2,0.5-0.7,0.7-1.4,0.7c-0.7,0-1.2-0.2-1.4-0.7
			c-0.1-0.3-0.2-0.7-0.2-1.2v-2.3L29.7-127.7L29.7-127.7z"/>
		<path id="path4393" d="M33.2-127.7h0.6v3.6h2.1v0.5h-2.6L33.2-127.7L33.2-127.7z"/>
		<path id="path4395" d="M36.4-127.7h3v0.5H37v1.2h2.3v0.5H37v1.4h2.5v0.5h-3L36.4-127.7L36.4-127.7z"/>
		<path id="path4397" d="M40.5-125c0,0.2,0.1,0.4,0.2,0.6c0.2,0.3,0.5,0.4,1,0.4c0.2,0,0.4,0,0.6-0.1c0.3-0.1,0.5-0.3,0.5-0.6
			c0-0.2-0.1-0.4-0.2-0.5c-0.1-0.1-0.4-0.2-0.7-0.2l-0.6-0.1c-0.4-0.1-0.6-0.2-0.8-0.3c-0.3-0.2-0.4-0.4-0.4-0.8
			c0-0.4,0.1-0.7,0.4-0.9c0.3-0.2,0.6-0.4,1.1-0.4c0.4,0,0.8,0.1,1.1,0.3c0.3,0.2,0.5,0.5,0.5,1h-0.5c0-0.2-0.1-0.4-0.2-0.5
			c-0.2-0.2-0.5-0.3-0.9-0.3c-0.3,0-0.6,0.1-0.7,0.2c-0.1,0.1-0.2,0.3-0.2,0.5c0,0.2,0.1,0.3,0.3,0.4c0.1,0.1,0.4,0.1,0.7,0.2
			l0.6,0.1c0.3,0.1,0.5,0.1,0.6,0.3c0.3,0.2,0.4,0.5,0.4,0.8c0,0.5-0.2,0.8-0.5,1c-0.3,0.2-0.7,0.3-1.1,0.3c-0.5,0-0.9-0.1-1.2-0.4
			c-0.3-0.3-0.4-0.6-0.4-1L40.5-125L40.5-125z"/>
	</g>
	<path d="M40.6,106.7H-3.7V62.4h44.3V106.7z M-3.4,106.4h43.7V62.7H-3.4V106.4z"/>
</g>
</svg>
