<?xml version="1.0" encoding="utf-8"?><svg xmlns="http://www.w3.org/2000/svg" xmlns:xlink="http://www.w3.org/1999/xlink"><symbol viewBox="0 0 54 120" id="O" xmlns="http://www.w3.org/2000/svg"><path d="M54 24.8v70.4c.2 13.4-12.9 24.6-27.1 24.8C12.6 119.7 0 108.6 0 95.2V24.8C0 11.2 12.7.3 27.2 0h.2C41.6.5 54 11.4 54 24.8zm-16.1 0c0-7.4-4.9-13.6-10.8-17-6.1 3.2-11 9.6-11 17v70.4c0 7.4 4.9 13.8 10.8 17 6.1-3.2 11-9.6 11-17V24.8zm-10.8 1.3S25 41.6 25 60.8c0 19.2 2.1 34.7 2.1 34.7S29 80 29 60.8c0-19.2-1.9-34.7-1.9-34.7z"/></symbol><symbol viewBox="0 0 129 135" id="W" xmlns="http://www.w3.org/2000/svg"><path d="M129 0s-.361 2.7-3.247 2.7-6.134 13.14-6.315 13.86l-21.29 101.88c-.18.72-3.067 13.86 0 13.86 2.707 0 1.805 2.7 1.805 2.7H75.415L62.786 44.64l-12.449 73.8c-.181.72-2.887 13.86 0 13.86 2.706 0 1.804 2.7 1.804 2.7h-30.13s-.722-2.7 1.984-2.7c3.067 0 .903-13.5.722-13.86L8.66 16.56C8.48 16.2 5.954 2.7 2.887 2.7.181 2.7 0 0 0 0h29.589s.721 2.7-1.985 2.7c-3.067 0-.902 13.14-.722 13.86l14.253 91.26s16.418-91.44 16.418-91.8c-.541-2.7-2.887-13.32-5.413-13.32-2.887 0-3.067-2.7-3.067-2.7H73.07l15.697 107.82 18.944-91.26c.181-.36 3.067-13.86 0-13.86-2.706 0-1.804-2.7-1.804-2.7H129z"/></symbol><symbol id="arrow_r" xml:space="preserve" viewBox="0 0 25.4 11.4" xmlns="http://www.w3.org/2000/svg"><style>.cst0{fill:#fff}</style><path class="cst0" d="M19.7 0l-1.4 1.4 3.3 3.3H0v2h21.6L18.3 10l1.4 1.4 5.7-5.7z"/></symbol><symbol viewBox="0 0 40 40" id="dummy" xmlns="http://www.w3.org/2000/svg"><defs><style>.dcls-1{fill:#9600ff;fill-rule:evenodd}</style></defs><path class="dcls-1" d="M33.393 26.694L40 33.33l-6.663 6.693-6.666-6.693 6.572-6.6-6.576-6.6-6.575 6.6 6.571 6.6L20 40.022l-6.662-6.692 6.572-6.6-6.576-6.6-6.575 6.6 6.57 6.6-6.662 6.692L0 33.33l6.605-6.636L0 20l6.605-6.694L0 6.672 6.667-.022l6.662 6.694-6.6 6.634 5.623 5.7.981.994.985-.99 5.624-5.7-6.604-6.638L20-.022l6.662 6.694-6.6 6.634 5.782 5.862.823.832.821-.825 5.788-5.866-6.605-6.637 6.664-6.694L40 6.672l-6.6 6.634L40 20z"/></symbol><symbol id="feature_1" xml:space="preserve" viewBox="0 0 53 51" xmlns="http://www.w3.org/2000/svg"><style>.est0{fill:#00fc82}</style><path class="est0" d="M25.107 7.13C23.379 1.265 18.223-.596 14.159.159c-3.705.689-7.237 3.71-7.068 8.92-2.611 1.535-4.743 5.016-3.633 8.609.019.061.054.112.083.166-.695.479-1.313 1.038-1.806 1.697-1.913 2.556-2.273 6.256-.94 9.656a10.939 10.939 0 0 0 2.441 3.755C.838 35.88 1.194 38.372 1.65 39.64c.804 2.237 3.039 3.972 5.562 4.316a6.5 6.5 0 0 0 .893.062c.019 0 .036-.003.055-.003C9.35 47.459 10.597 51 15.657 51l.141-.001c3.048-.039 7.203-.702 8.079-5.991.005-.03-.005-.057-.003-.086a.995.995 0 0 0 .079-.337l.034-1.008c.421-12.18.538-19.755-2.249-21.918l-.029-.02c3.319-3.344 4.558-10.575 3.398-14.509zM7.412 11.309a8.748 8.748 0 0 0 2.758 4.407c-1.631.133-3.328.497-4.841 1.152-.583-2.287.68-4.394 2.083-5.559zm14.561 32.199l-.035 1.009c0 .008.004.014.004.021-.016.049-.045.09-.054.142-.505 3.052-2.22 4.26-6.116 4.309-3.487.041-4.405-1.903-5.611-5.356a5.09 5.09 0 0 0 2.308-1.808 1 1 0 0 0-.24-1.4 1.01 1.01 0 0 0-1.405.239c-.991 1.394-2.517 1.415-3.338 1.302-1.77-.242-3.389-1.477-3.938-3.003-.528-1.47-.086-3.095 1.256-4.727a8.413 8.413 0 0 0 3.003 1.216 1.008 1.008 0 0 0 1.177-.802 1.005 1.005 0 0 0-.805-1.172c-2.394-.447-4.452-2.317-5.505-5.002-1.082-2.76-.822-5.72.679-7.725 2.014-2.691 7.597-3.697 11.055-2.766.053.014.105.004.157.01.078.008.156.024.231.014.043-.005.08-.026.121-.037.084-.022.169-.041.245-.083.042-.023.072-.06.11-.089.064-.049.131-.093.182-.156.038-.047.058-.108.088-.163.031-.058.073-.108.093-.173.002-.005 0-.01.001-.016.001-.005.005-.009.007-.014.016-.061.007-.12.012-.18.006-.068.021-.137.013-.203-.008-.064-.036-.12-.056-.18-.02-.062-.031-.127-.063-.184-.031-.055-.078-.097-.118-.145-.042-.051-.077-.107-.129-.149-.05-.04-.114-.062-.173-.093-.056-.029-.103-.07-.166-.089-2.027-.612-5.481-2.279-5.839-6.56-.387-4.62 2.67-6.853 5.405-7.361 3.2-.596 7.268.892 8.644 5.562 1.128 3.827-.621 12.115-4.328 13.53-.051.02-.087.058-.134.084-.059.034-.119.063-.169.107-.049.043-.084.095-.123.147-.039.051-.081.098-.11.156-.029.057-.041.119-.058.181s-.038.121-.043.187c-.005.066.008.131.016.198.006.053-.002.105.013.157.004.014.015.024.02.038.005.014.002.028.007.042.039.101.092.191.156.271l.016.015c.072.085.158.153.251.21.031.019.064.031.097.046a.979.979 0 0 0 .237.076c.037.007.071.014.109.016.025.002.049.011.074.011.055 0 .11-.021.165-.031.039-.006.076.002.115-.009.558-.16.834-.023 1.013.115 2.119 1.644 1.792 11.11 1.476 20.265z"/><path class="est0" d="M9.782 22.605a1.006 1.006 0 0 0-.98 1.031c.015.555.478 1.015 1.035.976 1.16-.033 2.127.373 2.865 1.203 1.188 1.334 1.604 3.571 1.392 4.998a1.006 1.006 0 0 0 .998 1.152c.491 0 .921-.358.996-.857.277-1.864-.193-4.733-1.879-6.626-1.135-1.276-2.671-1.931-4.427-1.877zM51.264 19.552c-.493-.659-1.111-1.219-1.806-1.698.029-.055.064-.105.083-.166 1.11-3.593-1.022-7.074-3.633-8.609.17-5.211-3.362-8.232-7.068-8.92-4.064-.753-9.219 1.105-10.948 6.971-1.159 3.934.079 11.165 3.398 14.509l-.029.02c-2.787 2.163-2.67 9.737-2.25 21.915l.035 1.012c.004.12.036.231.079.337.002.029-.008.056-.003.086.877 5.288 5.031 5.952 8.08 5.991h.141c5.059 0 6.307-3.542 7.497-6.984.018 0 .036.003.055.003.291 0 .59-.02.893-.062 2.523-.345 4.758-2.079 5.562-4.316.455-1.267.812-3.76-1.586-6.678a10.953 10.953 0 0 0 2.441-3.755c1.332-3.4.972-7.1-.941-9.656zm-3.592-2.685c-1.513-.655-3.21-1.019-4.841-1.152a8.755 8.755 0 0 0 2.757-4.406c1.403 1.164 2.666 3.272 2.084 5.558zm2.654 11.611c-1.053 2.685-3.11 4.555-5.505 5.002a1.004 1.004 0 1 0 .372 1.974 8.446 8.446 0 0 0 3.003-1.216c1.343 1.632 1.785 3.257 1.256 4.727-.548 1.527-2.167 2.761-3.938 3.003-.821.113-2.347.093-3.338-1.302a1.01 1.01 0 0 0-1.405-.239c-.454.32-.562.947-.24 1.4a5.093 5.093 0 0 0 2.307 1.808c-1.206 3.454-2.139 5.424-5.61 5.356-3.895-.05-5.611-1.258-6.116-4.309-.009-.052-.038-.093-.054-.142 0-.008.004-.014.004-.022l-.035-1.012c-.316-9.153-.643-18.618 1.474-20.261.179-.138.456-.275 1.013-.115.039.011.076.003.115.009.055.009.11.031.165.031.025 0 .049-.009.074-.011.037-.003.071-.01.108-.016.084-.016.163-.041.24-.077.032-.015.064-.027.095-.045.095-.057.181-.125.254-.211l.015-.014c.064-.08.118-.17.157-.271.005-.014.002-.028.007-.042.005-.014.016-.024.02-.038.015-.053.007-.105.013-.157.008-.067.022-.132.016-.198-.005-.066-.026-.125-.043-.187-.017-.062-.03-.123-.058-.18-.029-.058-.071-.105-.11-.156-.039-.051-.074-.103-.123-.147-.05-.044-.11-.073-.169-.107-.046-.027-.082-.065-.133-.084-3.707-1.415-5.456-9.703-4.328-13.53 1.376-4.67 5.443-6.156 8.644-5.562 2.735.508 5.792 2.741 5.405 7.361-.358 4.281-3.812 5.948-5.839 6.56-.063.019-.11.06-.166.089-.058.031-.123.052-.173.093-.052.042-.087.098-.129.149-.04.048-.088.09-.118.145-.032.057-.043.122-.063.184-.02.06-.048.117-.056.18-.008.067.008.135.013.203.005.06-.005.119.012.18.001.005.005.009.007.014l.001.016c.018.06.058.105.086.158.032.061.055.127.097.18.038.046.088.076.133.115.054.046.101.098.163.132.049.027.106.035.159.054.069.024.134.055.207.064.063.008.127-.008.191-.012s.127.005.192-.012c3.457-.929 9.041.075 11.055 2.766 1.498 2.002 1.759 4.962.676 7.722z"/><path class="est0" d="M43.218 22.605c-1.775-.053-3.292.601-4.428 1.877-1.686 1.893-2.155 4.762-1.879 6.626a1.006 1.006 0 0 0 1.145.846c.551-.081.931-.592.849-1.141-.212-1.427.204-3.664 1.392-4.998.739-.83 1.7-1.238 2.865-1.203a1.021 1.021 0 0 0 1.035-.976 1.005 1.005 0 0 0-.979-1.031z"/></symbol><symbol id="feature_2" xml:space="preserve" viewBox="0 0 67 51" xmlns="http://www.w3.org/2000/svg"><style>.fst0{fill:#00fc82}</style><path class="fst0" d="M57.282 7.654c-.892 0-1.615.728-1.615 1.626s.723 1.626 1.615 1.626 1.614-.728 1.614-1.626-.722-1.626-1.614-1.626zM52.523 7.654c-.892 0-1.615.728-1.615 1.626s.723 1.626 1.615 1.626 1.614-.728 1.614-1.626-.722-1.626-1.614-1.626zM47.765 7.654c-.892 0-1.615.728-1.615 1.626s.723 1.626 1.615 1.626 1.614-.728 1.614-1.626-.723-1.626-1.614-1.626z"/><path class="fst0" d="M58.109 0h-12.21c-4.902 0-8.891 4.017-8.891 8.953 0 1.354.308 2.696.893 3.91l-2.596 7.95c-.134.411.007.862.35 1.122a1 1 0 0 0 1.167.027l6.482-4.452c.85.264 1.721.397 2.596.397h12.21c4.902 0 8.891-4.017 8.891-8.953S63.011 0 58.109 0zm0 15.889h-12.21a6.822 6.822 0 0 1-2.398-.442 1.004 1.004 0 0 0-.914.112L38.13 18.62l1.806-5.529c.087-.266.06-.556-.074-.801a6.978 6.978 0 0 1-.85-3.337c0-3.824 3.09-6.936 6.888-6.936h12.21c3.798 0 6.888 3.111 6.888 6.936s-3.091 6.936-6.889 6.936zM20.534 24.024c.024.003.043.015.067.016.282.011.559.016.832.016 6.425 0 10.426-2.945 11.571-5.973.555-1.467.335-2.848-.575-3.602-.913-.758-1.928-.726-2.783-.43v-3.074c.05-4.959-3.195-7.981-8.679-8.085-.022 0-.038.01-.059.011-.022-.001-.039-.012-.061-.011-5.484.104-8.729 3.126-8.678 8.15v2.779a3.032 3.032 0 0 0-.915-.224 2.613 2.613 0 0 0-1.92.673c-.907.801-1.126 2.222-.569 3.708 1.018 2.72 4.712 5.87 11.769 6.046zm.352-19.113c.008 0 .014-.005.022-.005.008 0 .014.005.022.005 5.598.106 6.741 3.347 6.713 6.133v4.059c0 .04.018.074.023.112-6.71 4.047-12.109.97-13.516.007.005-.041.024-.077.024-.119v-4.145c-.029-2.7 1.114-5.942 6.712-6.047zM10.655 15.788c.674-.594 1.741.605 1.76.626.02.023.048.033.069.054.021.021.032.048.056.068.05.041 3.405 2.704 8.349 2.704 2.491 0 5.385-.676 8.463-2.704.025-.016.038-.042.06-.06.023-.018.05-.024.072-.044.01-.009 1.028-.927 1.672-.393.181.15.231.654-.023 1.328-.635 1.678-3.532 4.729-9.924 4.662-.008 0-.014-.004-.022-.004h-.037c-6.889 0-9.847-2.988-10.509-4.756-.285-.759-.192-1.299.014-1.481z"/><path class="fst0" d="M30.805 23.486a1.005 1.005 0 0 0-1.203-.754 1.01 1.01 0 0 0-.748 1.212c.191.826.288 1.682.288 2.546 0 5.435-3.829 9.857-8.537 9.857s-8.537-4.422-8.537-9.857c0-.921.11-1.832.327-2.708a1.001 1.001 0 1 0-1.944-.488 13.321 13.321 0 0 0-.386 3.196c0 6.548 4.728 11.875 10.54 11.875s10.54-5.327 10.54-11.875a13.38 13.38 0 0 0-.34-3.004zM6.646 37.646C.357 39.821.013 44.562 0 44.821v5.17C0 50.548.449 51 1.002 51s1.002-.452 1.002-1.009l-.002-5.103c.011-.147.332-3.618 5.298-5.335 1.689-.59 4.937-1.769 4.937-1.769l-.68-1.898c-.001 0-3.233 1.174-4.911 1.76zM35.119 37.647c-1.681-.587-4.913-1.761-4.914-1.761l-.68 1.898s3.248 1.179 4.977 1.782c5.461 1.653 5.271 5.022 5.262 5.153a1.16 1.16 0 0 0-.005.102v5.17c0 .557.449 1.009 1.002 1.009.553 0 1.002-.452 1.002-1.009v-5.134c.038-.63.074-5.177-6.644-7.21zM16.068 43.161l3.804-2.128-3.804-2.002zM25.7 43.161v-4.13l-3.804 2.002z"/></symbol><symbol id="feature_3" xml:space="preserve" viewBox="0 0 51 52" xmlns="http://www.w3.org/2000/svg"><style>.gst0{fill:#00fc82}</style><path class="gst0" d="M33.75 34.48v-2.188a1.01 1.01 0 0 0-1.009-1.008H11.683c-.557 0-1.009.451-1.009 1.008v11.061c0 4.082 3.146 8.647 7.357 8.647h8.362c3.193 0 5.618-2.357 6.713-5.244 3.822-.153 6.367-2.673 6.367-6.379 0-3.362-2.169-5.552-5.723-5.897zm-7.357 15.505h-8.362c-3.007 0-5.339-3.565-5.339-6.632V33.299h19.04v10.054c0 3.137-2.193 6.632-5.339 6.632zm7.251-5.296c.065-.445.105-.892.105-1.336v-6.851c1.693.207 3.705 1.047 3.705 3.875.001 2.407-1.44 3.993-3.81 4.312zM41.927 0h-6.926c-5.003 0-9.073 4.065-9.073 9.061 0 .404.015 1.657.036 3.24.054 3.926.148 9.886.148 9.886a1.009 1.009 0 0 0 1.755.662l4.667-5.124c3.905.875 9.241.414 9.393.397 5.003 0 9.073-4.065 9.073-9.061S46.93 0 41.927 0zm-.09 16.111c-.057.005-5.796.501-9.378-.48a1.01 1.01 0 0 0-1.013.294l-3.357 3.685a4618.28 4618.28 0 0 1-.108-7.337 402.03 402.03 0 0 1-.036-3.212c0-3.885 3.165-7.046 7.056-7.046h6.926c3.89 0 7.056 3.161 7.056 7.046-.001 3.885-3.166 7.046-7.146 7.05zM18.762 28.788a1.01 1.01 0 0 0 1.755-.662c.006-.387.149-9.488.149-10.62 0-4.147-3.379-7.521-7.532-7.521H7.532C3.379 9.985 0 13.359 0 17.506c0 4.145 3.375 7.518 7.435 7.518h.007c.191.017 4.44.385 7.619-.298l3.701 4.062zm-11.23-5.775c-3.041 0-5.514-2.47-5.514-5.506S4.491 12 7.532 12h5.602c3.041 0 5.514 2.47 5.514 5.506 0 .743-.066 5.153-.11 8.042l-2.387-2.621a1.01 1.01 0 0 0-1.013-.294c-2.86.784-7.471.387-7.606.38z"/><path class="gst0" d="M43.835 4.772H32.568a1.008 1.008 0 1 0 0 2.016h11.266a1.008 1.008 0 1 0 .001-2.016zM43.835 7.984H32.568a1.008 1.008 0 1 0 0 2.016h11.266a1.008 1.008 0 1 0 .001-2.016zM15.69 15.75a1.01 1.01 0 0 0-1.009-1.008H5.6a1.008 1.008 0 1 0 0 2.016h9.08c.558 0 1.01-.451 1.01-1.008zM15.69 18.962a1.01 1.01 0 0 0-1.009-1.008H9.762a1.008 1.008 0 1 0 0 2.016h4.919a1.01 1.01 0 0 0 1.009-1.008zM37.81 11.195h-5.242a1.008 1.008 0 1 0 0 2.016h5.242a1.008 1.008 0 1 0 0-2.016z"/></symbol><symbol viewBox="0 0 6 12" id="socials_fb" xmlns="http://www.w3.org/2000/svg"><defs><style>.hcls-1{fill-rule:evenodd}</style></defs><path id="hfb" class="hcls-1" d="M1219.3 43.323v1.651h-1.3V47h1.3v6h2.66v-6h1.79s.17-.969.25-2.028h-2.03v-1.385a.614.614 0 0 1 .58-.484h1.45V41h-1.97c-2.8 0-2.73 2.021-2.73 2.323z" transform="translate(-1218 -41)"/></symbol><symbol viewBox="0 0 21 20" id="socials_gh" xmlns="http://www.w3.org/2000/svg"><defs><style>.icls-1{fill-rule:evenodd}</style></defs><path id="iФигура_18_копия_3" data-name="Фигура 18 копия 3" class="icls-1" d="M948.608 3359.02l-.211.02.1.17.191-.02-.085-.17m.49.01l.043.2.211.05-.042-.21-.212-.04m.813 1.3l-.127.02-.042.13.085.16a.252.252 0 0 0 .179.1.157.157 0 0 0 .117-.06l.021-.12-.084-.15-.149-.08m2.733.66c-.141.03-.205.08-.19.17l.084.14.148.02a.21.21 0 0 0 .191-.21.2.2 0 0 0-.233-.12m-.658 0a.173.173 0 0 0-.212.17c0 .1.061.14.184.14h.049a.2.2 0 0 0 .233-.19l-.064-.08-.19-.04m-1.4 0a.144.144 0 0 0-.152.12l.021.11.149.1h.169l.106-.15c.014-.07-.049-.12-.191-.16a.435.435 0 0 0-.1-.02m4.785-15.98a10.689 10.689 0 0 0-5.292 1.32 9.668 9.668 0 0 0-3.726 3.64 9.919 9.919 0 0 0-1.355 5.12 10.081 10.081 0 0 0 1.99 6.13 10.194 10.194 0 0 0 5.208 3.74.816.816 0 0 0 .209.03.488.488 0 0 0 .32-.11.545.545 0 0 0 .19-.42l-.042-2.52-.466.04a4.411 4.411 0 0 1-.714.06c-.117 0-.231-.01-.344-.01a3.164 3.164 0 0 1-1.228-.38 1.659 1.659 0 0 1-.8-.95l-.17-.33a2.993 2.993 0 0 0-.423-.66 2.024 2.024 0 0 0-.593-.53l-.212-.17a.361.361 0 0 1-.19-.31c.014-.1.176-.14.487-.14l.3.04a4.136 4.136 0 0 1 .635.29 2.16 2.16 0 0 1 .678.74c.009.02.018.03.027.05l-.07.01c-.056.02-.056.11 0 .25l.149.08h.105a.207.207 0 0 0 .034-.03 1.957 1.957 0 0 0 1.448.75 1.251 1.251 0 0 0 .273.02 2.776 2.776 0 0 0 1.124-.26 2.235 2.235 0 0 1 .678-1.41 11.844 11.844 0 0 1-2.287-.41 3.455 3.455 0 0 1-1.778-1.28 5.248 5.248 0 0 1-.677-2.89 3.167 3.167 0 0 1 .233-1.3 5.288 5.288 0 0 1 .741-1.14 2.291 2.291 0 0 1-.17-.95 3.779 3.779 0 0 1 .3-1.82 1.034 1.034 0 0 1 .263-.03 2.716 2.716 0 0 1 .88.2 9.7 9.7 0 0 1 1.228.58l.55.37a9.3 9.3 0 0 1 2.646-.37 9.745 9.745 0 0 1 2.689.37l.55-.37a11.84 11.84 0 0 1 1.185-.58 2.746 2.746 0 0 1 .9-.2 1.24 1.24 0 0 1 .285.03 4.6 4.6 0 0 1 .3 1.82 3.161 3.161 0 0 1-.211.99 4.9 4.9 0 0 1 .8 1.04 2.927 2.927 0 0 1 .3 1.36 5.183 5.183 0 0 1-.72 2.93 3.841 3.841 0 0 1-1.821 1.24 11.949 11.949 0 0 1-2.328.41 2.308 2.308 0 0 1 .719 1.9v3.47a.546.546 0 0 0 .191.42.487.487 0 0 0 .32.11.816.816 0 0 0 .209-.03 10.306 10.306 0 0 0 7.113-9.87 9.714 9.714 0 0 0-1.44-5.17 9.984 9.984 0 0 0-3.852-3.59 11.092 11.092 0 0 0-5.335-1.32" transform="translate(-945 -3345)"/></symbol><symbol viewBox="0 0 15.07 12" id="socials_med" xmlns="http://www.w3.org/2000/svg"><defs><style>.jcls-1{fill-rule:evenodd}</style></defs><path id="jmedium" class="jcls-1" d="M1301.64 43.74h-.59a.675.675 0 0 0-.53.526V51.7a.63.63 0 0 0 .53.486h.59v1.765h-5.39V52.19h1.13v-7.82h-.05l-2.64 9.585h-2.04l-2.6-9.585h-.07v7.82h1.13v1.765h-4.51V52.19h.58a.642.642 0 0 0 .55-.486v-7.439a.686.686 0 0 0-.55-.526h-.58v-1.765h5.64l1.86 6.937h.05l1.87-6.937h5.62v1.766z" transform="translate(-1286.59 -41.969)"/></symbol><symbol viewBox="0 0 14.216 14.219" id="socials_sl" xmlns="http://www.w3.org/2000/svg"><defs><style>.kcls-1{fill-rule:evenodd}</style></defs><path id="kskack" class="kcls-1" d="M998.762 40.47c4.888-1.466 7.008-.326 8.468 4.562s.33 7.006-4.56 8.472-7 .326-8.47-4.562-.326-7.006 4.562-8.472zm5.078 8.043l.92-.307a.738.738 0 1 0-.47-1.4l-.92.309-.61-1.83.92-.308a.738.738 0 1 0-.47-1.4l-.92.309-.32-.954a.738.738 0 0 0-1.4.468l.32.954-1.9.637-.318-.954a.738.738 0 0 0-1.4.469l.319.953-.922.308a.738.738 0 0 0 .215 1.437.729.729 0 0 0 .254-.038l.922-.31.612 1.829-.918.315a.737.737 0 0 0 .215 1.436.706.706 0 0 0 .253-.037l.922-.308.319.953a.737.737 0 0 0 .677.5.786.786 0 0 0 .26-.038.74.74 0 0 0 .46-.934l-.32-.953 1.9-.637.32.954a.737.737 0 0 0 .68.5.768.768 0 0 0 .26-.038.738.738 0 0 0 .46-.932zm-1.89-.909l-1.85.617-.617-1.851 1.847-.617z" transform="translate(-993.594 -39.875)"/></symbol><symbol viewBox="0 0 14.96 12" id="socials_tw" xmlns="http://www.w3.org/2000/svg"><defs><style>.lcls-1{fill-rule:evenodd}</style></defs><path id="ltw" class="lcls-1" d="M1080.31 43a1.654 1.654 0 0 1 .03.375 8.5 8.5 0 0 1-1.03 4.01 8.241 8.241 0 0 1-2.95 3.259 8.5 8.5 0 0 1-4.77 1.356 8.638 8.638 0 0 1-4.71-1.356c.22.02.46.029.74.029a6.145 6.145 0 0 0 3.83-1.3 2.857 2.857 0 0 1-1.8-.592 3.028 3.028 0 0 1-1.07-1.485c.2.019.38.028.56.028a3.838 3.838 0 0 0 .81-.086 3.108 3.108 0 0 1-1.75-1.067 2.868 2.868 0 0 1-.7-1.9v-.06a2.931 2.931 0 0 0 1.37.4 3.316 3.316 0 0 1-.99-1.1 2.91 2.91 0 0 1-.38-1.456 2.8 2.8 0 0 1 .44-1.514 8.45 8.45 0 0 0 2.79 2.25 8.6 8.6 0 0 0 3.52.923 4.034 4.034 0 0 1-.05-.693 3 3 0 0 1 .4-1.515 3.048 3.048 0 0 1 1.12-1.11 3.071 3.071 0 0 1 2.76-.144 3.454 3.454 0 0 1 1.01.691 6.364 6.364 0 0 0 1.96-.72 3.017 3.017 0 0 1-1.35 1.672 6.707 6.707 0 0 0 1.76-.49 6.82 6.82 0 0 1-1.55 1.595z" transform="translate(-1066.88 -40)"/></symbol><symbol viewBox="0 0 17 12" id="socials_yt" xmlns="http://www.w3.org/2000/svg"><defs><style>.mcls-1{fill-rule:evenodd}</style></defs><path id="myt" class="mcls-1" d="M1145.74 48.212v-4.793l4.59 2.4zm10.08-5.625a3.786 3.786 0 0 0-.67-1.693 2.424 2.424 0 0 0-1.71-.722c-2.37-.172-5.94-.172-5.94-.172h-.01s-3.57 0-5.94.173a2.424 2.424 0 0 0-1.71.722 3.663 3.663 0 0 0-.67 1.693 25.915 25.915 0 0 0-.17 2.761v1.295a25.912 25.912 0 0 0 .17 2.762 3.664 3.664 0 0 0 .67 1.693 2.885 2.885 0 0 0 1.88.729c1.36.131 5.77.172 5.77.172s3.58-.006 5.95-.177a2.441 2.441 0 0 0 1.71-.723 3.787 3.787 0 0 0 .67-1.693 25.912 25.912 0 0 0 .17-2.762v-1.296a25.915 25.915 0 0 0-.17-2.762z" transform="translate(-1139 -40)"/></symbol></svg>