<?xml version="1.0" encoding="utf-8"?><svg xmlns="http://www.w3.org/2000/svg" xmlns:xlink="http://www.w3.org/1999/xlink"><symbol id="arrow-l" xml:space="preserve" viewBox="0 0 7.9 13.4" xmlns="http://www.w3.org/2000/svg"><style>.ast0{fill:#171717}</style><path class="ast0" d="M6.5 13.4L0 6.7 6.5 0l1.4 1.4-5.1 5.3L7.9 12z"/></symbol><symbol id="arrow-r" xml:space="preserve" viewBox="0 0 7.9 13.4" xmlns="http://www.w3.org/2000/svg"><style>.bst0{fill:#171717}</style><path class="bst0" d="M1.4 0l6.5 6.7-6.5 6.7L0 12l5.1-5.3L0 1.4z"/></symbol><symbol id="arrow_r" xml:space="preserve" viewBox="0 0 25.4 11.4" xmlns="http://www.w3.org/2000/svg"><style>.cst0{fill:#fff}</style><path class="cst0" d="M19.7 0l-1.4 1.4 3.3 3.3H0v2h21.6L18.3 10l1.4 1.4 5.7-5.7z"/></symbol><symbol id="feature_1" xml:space="preserve" viewBox="0 0 53 51" xmlns="http://www.w3.org/2000/svg"><style>.dst0{fill:#00fc82}</style><path class="dst0" d="M25.107 7.13C23.379 1.265 18.223-.596 14.159.159c-3.705.689-7.237 3.71-7.068 8.92-2.611 1.535-4.743 5.016-3.633 8.609.019.061.054.112.083.166-.695.479-1.313 1.038-1.806 1.697-1.913 2.556-2.273 6.256-.94 9.656a10.939 10.939 0 002.441 3.755C.838 35.88 1.194 38.372 1.65 39.64c.804 2.237 3.039 3.972 5.562 4.316a6.5 6.5 0 00.893.062c.019 0 .036-.003.055-.003C9.35 47.459 10.597 51 15.657 51l.141-.001c3.048-.039 7.203-.702 8.079-5.991.005-.03-.005-.057-.003-.086a.995.995 0 00.079-.337l.034-1.008c.421-12.18.538-19.755-2.249-21.918l-.029-.02c3.319-3.344 4.558-10.575 3.398-14.509zM7.412 11.309a8.748 8.748 0 002.758 4.407c-1.631.133-3.328.497-4.841 1.152-.583-2.287.68-4.394 2.083-5.559zm14.561 32.199l-.035 1.009c0 .008.004.014.004.021-.016.049-.045.09-.054.142-.505 3.052-2.22 4.26-6.116 4.309-3.487.041-4.405-1.903-5.611-5.356a5.09 5.09 0 002.308-1.808 1 1 0 00-.24-1.4 1.01 1.01 0 00-1.405.239c-.991 1.394-2.517 1.415-3.338 1.302-1.77-.242-3.389-1.477-3.938-3.003-.528-1.47-.086-3.095 1.256-4.727a8.413 8.413 0 003.003 1.216 1.008 1.008 0 001.177-.802 1.005 1.005 0 00-.805-1.172c-2.394-.447-4.452-2.317-5.505-5.002-1.082-2.76-.822-5.72.679-7.725 2.014-2.691 7.597-3.697 11.055-2.766.053.014.105.004.157.01.078.008.156.024.231.014.043-.005.08-.026.121-.037.084-.022.169-.041.245-.083.042-.023.072-.06.11-.089.064-.049.131-.093.182-.156.038-.047.058-.108.088-.163.031-.058.073-.108.093-.173.002-.005 0-.01.001-.016.001-.005.005-.009.007-.014.016-.061.007-.12.012-.18.006-.068.021-.137.013-.203-.008-.064-.036-.12-.056-.18-.02-.062-.031-.127-.063-.184-.031-.055-.078-.097-.118-.145-.042-.051-.077-.107-.129-.149-.05-.04-.114-.062-.173-.093-.056-.029-.103-.07-.166-.089-2.027-.612-5.481-2.279-5.839-6.56-.387-4.62 2.67-6.853 5.405-7.361 3.2-.596 7.268.892 8.644 5.562 1.128 3.827-.621 12.115-4.328 13.53-.051.02-.087.058-.134.084-.059.034-.119.063-.169.107-.049.043-.084.095-.123.147-.039.051-.081.098-.11.156-.029.057-.041.119-.058.181s-.038.121-.043.187c-.005.066.008.131.016.198.006.053-.002.105.013.157.004.014.015.024.02.038.005.014.002.028.007.042.039.101.092.191.156.271l.016.015c.072.085.158.153.251.21.031.019.064.031.097.046a.979.979 0 00.237.076c.037.007.071.014.109.016.025.002.049.011.074.011.055 0 .11-.021.165-.031.039-.006.076.002.115-.009.558-.16.834-.023 1.013.115 2.119 1.644 1.792 11.11 1.476 20.265z"/><path class="dst0" d="M9.782 22.605a1.006 1.006 0 00-.98 1.031c.015.555.478 1.015 1.035.976 1.16-.033 2.127.373 2.865 1.203 1.188 1.334 1.604 3.571 1.392 4.998a1.006 1.006 0 00.998 1.152c.491 0 .921-.358.996-.857.277-1.864-.193-4.733-1.879-6.626-1.135-1.276-2.671-1.931-4.427-1.877zM51.264 19.552c-.493-.659-1.111-1.219-1.806-1.698.029-.055.064-.105.083-.166 1.11-3.593-1.022-7.074-3.633-8.609.17-5.211-3.362-8.232-7.068-8.92-4.064-.753-9.219 1.105-10.948 6.971-1.159 3.934.079 11.165 3.398 14.509l-.029.02c-2.787 2.163-2.67 9.737-2.25 21.915l.035 1.012c.004.12.036.231.079.337.002.029-.008.056-.003.086.877 5.288 5.031 5.952 8.08 5.991h.141c5.059 0 6.307-3.542 7.497-6.984.018 0 .036.003.055.003.291 0 .59-.02.893-.062 2.523-.345 4.758-2.079 5.562-4.316.455-1.267.812-3.76-1.586-6.678a10.953 10.953 0 002.441-3.755c1.332-3.4.972-7.1-.941-9.656zm-3.592-2.685c-1.513-.655-3.21-1.019-4.841-1.152a8.755 8.755 0 002.757-4.406c1.403 1.164 2.666 3.272 2.084 5.558zm2.654 11.611c-1.053 2.685-3.11 4.555-5.505 5.002a1.004 1.004 0 10.372 1.974 8.446 8.446 0 003.003-1.216c1.343 1.632 1.785 3.257 1.256 4.727-.548 1.527-2.167 2.761-3.938 3.003-.821.113-2.347.093-3.338-1.302a1.01 1.01 0 00-1.405-.239c-.454.32-.562.947-.24 1.4a5.093 5.093 0 002.307 1.808c-1.206 3.454-2.139 5.424-5.61 5.356-3.895-.05-5.611-1.258-6.116-4.309-.009-.052-.038-.093-.054-.142 0-.008.004-.014.004-.022l-.035-1.012c-.316-9.153-.643-18.618 1.474-20.261.179-.138.456-.275 1.013-.115.039.011.076.003.115.009.055.009.11.031.165.031.025 0 .049-.009.074-.011.037-.003.071-.01.108-.016.084-.016.163-.041.24-.077.032-.015.064-.027.095-.045.095-.057.181-.125.254-.211l.015-.014c.064-.08.118-.17.157-.271.005-.014.002-.028.007-.042.005-.014.016-.024.02-.038.015-.053.007-.105.013-.157.008-.067.022-.132.016-.198-.005-.066-.026-.125-.043-.187-.017-.062-.03-.123-.058-.18-.029-.058-.071-.105-.11-.156-.039-.051-.074-.103-.123-.147-.05-.044-.11-.073-.169-.107-.046-.027-.082-.065-.133-.084-3.707-1.415-5.456-9.703-4.328-13.53 1.376-4.67 5.443-6.156 8.644-5.562 2.735.508 5.792 2.741 5.405 7.361-.358 4.281-3.812 5.948-5.839 6.56-.063.019-.11.06-.166.089-.058.031-.123.052-.173.093-.052.042-.087.098-.129.149-.04.048-.088.09-.118.145-.032.057-.043.122-.063.184-.02.06-.048.117-.056.18-.008.067.008.135.013.203.005.06-.005.119.012.18.001.005.005.009.007.014l.001.016c.018.06.058.105.086.158.032.061.055.127.097.18.038.046.088.076.133.115.054.046.101.098.163.132.049.027.106.035.159.054.069.024.134.055.207.064.063.008.127-.008.191-.012s.127.005.192-.012c3.457-.929 9.041.075 11.055 2.766 1.498 2.002 1.759 4.962.676 7.722z"/><path class="dst0" d="M43.218 22.605c-1.775-.053-3.292.601-4.428 1.877-1.686 1.893-2.155 4.762-1.879 6.626a1.006 1.006 0 001.145.846c.551-.081.931-.592.849-1.141-.212-1.427.204-3.664 1.392-4.998.739-.83 1.7-1.238 2.865-1.203a1.021 1.021 0 001.035-.976 1.005 1.005 0 00-.979-1.031z"/></symbol><symbol id="feature_2" xml:space="preserve" viewBox="0 0 67 51" xmlns="http://www.w3.org/2000/svg"><style>.est0{fill:#00fc82}</style><path class="est0" d="M57.282 7.654c-.892 0-1.615.728-1.615 1.626s.723 1.626 1.615 1.626 1.614-.728 1.614-1.626-.722-1.626-1.614-1.626zM52.523 7.654c-.892 0-1.615.728-1.615 1.626s.723 1.626 1.615 1.626 1.614-.728 1.614-1.626-.722-1.626-1.614-1.626zM47.765 7.654c-.892 0-1.615.728-1.615 1.626s.723 1.626 1.615 1.626 1.614-.728 1.614-1.626-.723-1.626-1.614-1.626z"/><path class="est0" d="M58.109 0h-12.21c-4.902 0-8.891 4.017-8.891 8.953 0 1.354.308 2.696.893 3.91l-2.596 7.95c-.134.411.007.862.35 1.122a1 1 0 001.167.027l6.482-4.452c.85.264 1.721.397 2.596.397h12.21c4.902 0 8.891-4.017 8.891-8.953S63.011 0 58.109 0zm0 15.889h-12.21a6.822 6.822 0 01-2.398-.442 1.004 1.004 0 00-.914.112L38.13 18.62l1.806-5.529c.087-.266.06-.556-.074-.801a6.978 6.978 0 01-.85-3.337c0-3.824 3.09-6.936 6.888-6.936h12.21c3.798 0 6.888 3.111 6.888 6.936s-3.091 6.936-6.889 6.936zM20.534 24.024c.024.003.043.015.067.016.282.011.559.016.832.016 6.425 0 10.426-2.945 11.571-5.973.555-1.467.335-2.848-.575-3.602-.913-.758-1.928-.726-2.783-.43v-3.074c.05-4.959-3.195-7.981-8.679-8.085-.022 0-.038.01-.059.011-.022-.001-.039-.012-.061-.011-5.484.104-8.729 3.126-8.678 8.15v2.779a3.032 3.032 0 00-.915-.224 2.613 2.613 0 00-1.92.673c-.907.801-1.126 2.222-.569 3.708 1.018 2.72 4.712 5.87 11.769 6.046zm.352-19.113c.008 0 .014-.005.022-.005.008 0 .014.005.022.005 5.598.106 6.741 3.347 6.713 6.133v4.059c0 .04.018.074.023.112-6.71 4.047-12.109.97-13.516.007.005-.041.024-.077.024-.119v-4.145c-.029-2.7 1.114-5.942 6.712-6.047zM10.655 15.788c.674-.594 1.741.605 1.76.626.02.023.048.033.069.054.021.021.032.048.056.068.05.041 3.405 2.704 8.349 2.704 2.491 0 5.385-.676 8.463-2.704.025-.016.038-.042.06-.06.023-.018.05-.024.072-.044.01-.009 1.028-.927 1.672-.393.181.15.231.654-.023 1.328-.635 1.678-3.532 4.729-9.924 4.662-.008 0-.014-.004-.022-.004h-.037c-6.889 0-9.847-2.988-10.509-4.756-.285-.759-.192-1.299.014-1.481z"/><path class="est0" d="M30.805 23.486a1.005 1.005 0 00-1.203-.754 1.01 1.01 0 00-.748 1.212c.191.826.288 1.682.288 2.546 0 5.435-3.829 9.857-8.537 9.857s-8.537-4.422-8.537-9.857c0-.921.11-1.832.327-2.708a1.001 1.001 0 10-1.944-.488 13.321 13.321 0 00-.386 3.196c0 6.548 4.728 11.875 10.54 11.875s10.54-5.327 10.54-11.875a13.38 13.38 0 00-.34-3.004zM6.646 37.646C.357 39.821.013 44.562 0 44.821v5.17C0 50.548.449 51 1.002 51s1.002-.452 1.002-1.009l-.002-5.103c.011-.147.332-3.618 5.298-5.335 1.689-.59 4.937-1.769 4.937-1.769l-.68-1.898c-.001 0-3.233 1.174-4.911 1.76zM35.119 37.647c-1.681-.587-4.913-1.761-4.914-1.761l-.68 1.898s3.248 1.179 4.977 1.782c5.461 1.653 5.271 5.022 5.262 5.153a1.16 1.16 0 00-.005.102v5.17c0 .557.449 1.009 1.002 1.009.553 0 1.002-.452 1.002-1.009v-5.134c.038-.63.074-5.177-6.644-7.21zM16.068 43.161l3.804-2.128-3.804-2.002zM25.7 43.161v-4.13l-3.804 2.002z"/></symbol><symbol id="feature_3" xml:space="preserve" viewBox="0 0 51 52" xmlns="http://www.w3.org/2000/svg"><style>.fst0{fill:#00fc82}</style><path class="fst0" d="M33.75 34.48v-2.188a1.01 1.01 0 00-1.009-1.008H11.683c-.557 0-1.009.451-1.009 1.008v11.061c0 4.082 3.146 8.647 7.357 8.647h8.362c3.193 0 5.618-2.357 6.713-5.244 3.822-.153 6.367-2.673 6.367-6.379 0-3.362-2.169-5.552-5.723-5.897zm-7.357 15.505h-8.362c-3.007 0-5.339-3.565-5.339-6.632V33.299h19.04v10.054c0 3.137-2.193 6.632-5.339 6.632zm7.251-5.296c.065-.445.105-.892.105-1.336v-6.851c1.693.207 3.705 1.047 3.705 3.875.001 2.407-1.44 3.993-3.81 4.312zM41.927 0h-6.926c-5.003 0-9.073 4.065-9.073 9.061 0 .404.015 1.657.036 3.24.054 3.926.148 9.886.148 9.886a1.009 1.009 0 001.755.662l4.667-5.124c3.905.875 9.241.414 9.393.397 5.003 0 9.073-4.065 9.073-9.061S46.93 0 41.927 0zm-.09 16.111c-.057.005-5.796.501-9.378-.48a1.01 1.01 0 00-1.013.294l-3.357 3.685a4618.28 4618.28 0 01-.108-7.337 402.03 402.03 0 01-.036-3.212c0-3.885 3.165-7.046 7.056-7.046h6.926c3.89 0 7.056 3.161 7.056 7.046-.001 3.885-3.166 7.046-7.146 7.05zM18.762 28.788a1.01 1.01 0 001.755-.662c.006-.387.149-9.488.149-10.62 0-4.147-3.379-7.521-7.532-7.521H7.532C3.379 9.985 0 13.359 0 17.506c0 4.145 3.375 7.518 7.435 7.518h.007c.191.017 4.44.385 7.619-.298l3.701 4.062zm-11.23-5.775c-3.041 0-5.514-2.47-5.514-5.506S4.491 12 7.532 12h5.602c3.041 0 5.514 2.47 5.514 5.506 0 .743-.066 5.153-.11 8.042l-2.387-2.621a1.01 1.01 0 00-1.013-.294c-2.86.784-7.471.387-7.606.38z"/><path class="fst0" d="M43.835 4.772H32.568a1.008 1.008 0 100 2.016h11.266a1.008 1.008 0 10.001-2.016zM43.835 7.984H32.568a1.008 1.008 0 100 2.016h11.266a1.008 1.008 0 10.001-2.016zM15.69 15.75a1.01 1.01 0 00-1.009-1.008H5.6a1.008 1.008 0 100 2.016h9.08c.558 0 1.01-.451 1.01-1.008zM15.69 18.962a1.01 1.01 0 00-1.009-1.008H9.762a1.008 1.008 0 100 2.016h4.919a1.01 1.01 0 001.009-1.008zM37.81 11.195h-5.242a1.008 1.008 0 100 2.016h5.242a1.008 1.008 0 100-2.016z"/></symbol><symbol viewBox="0 0 48 53" id="logo-graphql" xmlns="http://www.w3.org/2000/svg"><path d="M45.6 33.3c-.4-.2-.8-.4-1.3-.5V20.2c.5-.1.9-.3 1.3-.5 2.3-1.3 3.1-4.1 1.8-6.4v-.1c-1.4-2.3-4.3-3-6.6-1.7-.4.2-.8.5-1.1.8L28.6 6.1c.1-.4.2-.9.2-1.3 0-2.7-2.2-4.8-4.9-4.8-2.6.1-4.7 2.1-4.7 4.7 0 .5.1.9.2 1.3L8.3 12.4c-.3-.4-.7-.7-1.1-.9C4.9 10.2 2 11 .6 13.3c-1.3 2.2-.6 5.1 1.7 6.4h.1c.4.2.8.4 1.3.5v12.6c-.4.1-.9.3-1.3.5C.1 34.6-.7 37.4.6 39.7v.1c1.4 2.3 4.3 3 6.6 1.7.4-.2.8-.5 1.1-.8L19.4 47c-.1.4-.2.9-.2 1.3.1 2.7 2.3 4.8 4.9 4.7 2.6-.1 4.7-2.1 4.7-4.7 0-.5-.1-1-.3-1.5l11-6.3c.3.4.7.7 1.2.9 2.3 1.3 5.2.5 6.6-1.7 1.3-2.2.6-5.1-1.6-6.4h-.1zm-39.4-.4c-.1 0-.1 0-.2-.1V20.2c1.3-.3 2.3-1.1 3-2.2.7-1.1.8-2.4.5-3.7l11-6.3c.1 0 .1.1.1.1L6.2 32.9zm21.3 12.2c-1.8-2-4.9-2.1-6.9-.2l-.1.1-11.1-6.3c0-.1 0-.1.1-.2h29c0 .1.1.2.1.3l-11.1 6.3zM39 35c-.2.4-.4.8-.5 1.2h-29c-.1-.4-.3-.8-.5-1.2-.2-.4-.5-.7-.8-1.1L22.7 9.3c.4.1.9.2 1.3.2.5 0 .9-.1 1.3-.2L39.9 34c-.4.3-.7.6-.9 1zm3-2.2c-.1 0-.1 0-.2.1L27.3 8.1l.1-.1 11.1 6.3c-.4 1.2-.2 2.5.5 3.7.7 1.1 1.7 1.9 3 2.2v12.6z" fill="#e10098"/></symbol><symbol viewBox="0 0 50 55" id="logo-jest" xmlns="http://www.w3.org/2000/svg"><path d="M46.2 35.5v-.4V34.8 34.5 34.2 33.9 33.6v-.2s0-.1-.1-.1c0-.1 0-.1-.1-.2 0 0 0-.1-.1-.1 0 0 0-.1-.1-.1 0 0 0-.1-.1-.1 0 0 0-.1-.1-.1 0 0 0-.1-.1-.1-1 .7-2.3 1.1-3.6 1.1-3.2 0-5.9-2.4-6.3-5.5h-4.1c-.4 3.1-3.1 5.5-6.3 5.5-.3 0-.6 0-1-.1v.1c-.1.1-.1.2-.2.3s-.2.2-.2.3c-.1.1-.1.2-.2.3s-.2.2-.2.3c-.4-.1-.4 0-.5.1l-.3.3c-.1.1-.1.2-.2.3l-.3.3c-.1.1-.1.2-.2.3l-.3.3c-.1.1-.1.2-.2.2-.1.1-.2.3-.4.4l-.2.2-.6.6-.3.3c-.2.2-.5.4-.7.6-.2.2-.5.4-.7.6-.4.3-.7.5-1.1.8-1.1.7-2.2 1.4-3.4 1.9-.5.2-.9.4-1.4.6l-.5.2-.5-.2c-3.5-1.8-5.2-5.6-4.1-9.1-.6-.1-1.1-.2-1.7-.4-.2.4-.4.7-.5 1.1-1.1 2.1-2.1 4.4-2.5 6.8-.4 2.6-.6 7.4 3.1 9.9 1.7 1.2 3.5 1.7 5.4 1.7 3.5 0 7.2-1.9 11.3-3.9 3.1-1.5 6.3-3.1 9.7-4 1.3-.3 2.5-.5 3.8-.7 2.3-.3 4.5-.6 6.4-1.7.6-.4 1.2-.8 1.7-1.3l.4-.4.2-.2c.8-1 1.3-2.1 1.5-3.3v-.4V36.5 36.2 35.9c-.1-.3-.1-.4-.1-.4z" fill="#c21325"/><path d="M44.6 40.4c.8-1 1.3-2.1 1.5-3.3-.2 1.2-.8 2.3-1.5 3.3zM24 33.4zM2.7 40.9c.4-2.4 1.5-4.6 2.5-6.8.2-.4.4-.7.5-1.1-.2.4-.4.7-.5 1.1-1 2.2-2.1 4.4-2.5 6.8-.4 2.6-.6 7.4 3.1 9.9 1.7 1.2 3.5 1.7 5.4 1.7-1.8 0-3.6-.5-5.4-1.7-3.7-2.5-3.5-7.3-3.1-9.9zM19.2 38.9c.2-.2.5-.4.7-.6-.2.2-.5.4-.7.6zM18.5 39.4c.2-.2.5-.4.7-.6-.2.3-.5.4-.7.6zM12.6 42.7c.5-.2.9-.4 1.4-.6-.5.2-.9.4-1.4.6l-.5.2.5-.2zM45.4 32.3s0 .1 0 0c0 .1 0 0 0 0z" fill="#fff"/><path d="M27.1 21.1l6.2-12.5 6.2 12.6c.3-.1.5-.2.8-.2l6.3-18.4H20l6.2 18.3c.3 0 .6.1.9.2zM25 30.9c2.1 0 3.9-1.7 3.9-3.9 0-2.1-1.7-3.9-3.9-3.9s-3.9 1.7-3.9 3.9 1.7 3.9 3.9 3.9zM37.8 27.1c0 2.1 1.7 3.9 3.9 3.9 2.1 0 3.9-1.7 3.9-3.9 0-2.1-1.7-3.9-3.9-3.9-2.1 0-3.9 1.7-3.9 3.9zM8.2 31c2.1 0 3.9-1.7 3.9-3.9 0-2.1-1.7-3.9-3.9-3.9-2.1 0-3.9 1.7-3.9 3.9S6 31 8.2 31z" fill="#c21325"/></symbol><symbol viewBox="0 0 54 48" id="logo-react" xmlns="http://www.w3.org/2000/svg"><path d="M54 24c0-3.6-4.5-7-11.3-9.1 1.6-7 .9-12.5-2.2-14.3C39.7.2 38.8 0 38 0c-3 0-7 2.2-11 5.9C23 2.2 19 0 16 0c-.9 0-1.7.2-2.5.6C10.4 2.5 9.7 8 11.3 15 4.5 17.1 0 20.5 0 24s4.5 6.9 11.3 9.1c-1.6 7-.9 12.5 2.2 14.3.8.4 1.6.6 2.5.6 3 0 7-2.2 11-5.9 4 3.7 8 5.8 11 5.8.9 0 1.7-.2 2.5-.6 3.1-1.8 3.8-7.3 2.2-14.3 6.8-2.1 11.3-5.4 11.3-9zM38 2.4c.4 0 .9.1 1.3.3 1.5.8 2.1 4.1 1.6 8.3-.1 1-.3 2.1-.6 3.2-2.3-.5-4.6-.9-7-1.2-1.4-1.9-2.9-3.8-4.6-5.5 3.6-3.2 7-5 9.3-5.1zM17.2 29.6c.5.9 1 1.7 1.6 2.6-1.6-.2-3.1-.5-4.5-.9.4-1.4.9-2.9 1.5-4.3.5.9.9 1.8 1.4 2.6zm-2.9-12.9c1.4-.3 3-.6 4.5-.9-.5.8-1.1 1.7-1.6 2.6s-1 1.8-1.4 2.6c-.6-1.4-1.1-2.9-1.5-4.3zm2.8 7.3c.7-1.5 1.5-2.9 2.3-4.4.9-1.5 1.7-2.9 2.7-4.2 1.6-.1 3.3-.2 5-.2s3.3.1 5 .2c.9 1.3 1.8 2.7 2.7 4.2.8 1.4 1.6 2.9 2.3 4.4-.7 1.5-1.5 2.9-2.3 4.4-.9 1.5-1.7 2.9-2.7 4.2-1.6.2-3.3.2-5 .2s-3.3-.1-5-.2c-.9-1.3-1.8-2.7-2.7-4.2-.9-1.4-1.6-2.9-2.3-4.4zm19.7 5.6c.5-.9 1-1.8 1.4-2.7.6 1.5 1.1 2.9 1.5 4.4-1.4.3-3 .7-4.5.9.5-.8 1-1.7 1.6-2.6zm-.1-11.2c-.5-.9-1-1.7-1.6-2.6 1.6.2 3.1.5 4.5.9-.4 1.4-.9 2.9-1.5 4.3-.4-.9-.8-1.7-1.4-2.6zM30 12.9c-1 0-2-.1-3-.1s-2.1 0-3.1.1c.9-1.2 2-2.4 3-3.5 1.1 1.1 2.2 2.2 3.1 3.5zM14.7 2.8c.4-.2.8-.3 1.3-.3 2.3 0 5.7 1.8 9.2 5.1-1.6 1.7-3.2 3.6-4.5 5.5-2.4.2-4.7.6-7 1.2-.3-1.1-.4-2.2-.6-3.2-.5-4.2.1-7.4 1.6-8.3zm-2.8 27.9c-1.1-.3-2.1-.7-3.1-1.1C5 27.9 2.4 25.7 2.4 24s2.5-3.9 6.4-5.6c.9-.4 2-.8 3-1.1.7 2.3 1.5 4.5 2.5 6.7-.9 2.2-1.7 4.4-2.4 6.7zM16 45.6c-.4 0-.9-.1-1.2-.3-1.5-.8-2.1-4.1-1.6-8.3.1-1 .3-2.1.6-3.2 2.3.5 4.6.9 7 1.2 1.4 1.9 2.9 3.8 4.6 5.5-3.7 3.2-7.1 5.1-9.4 5.1zm11-6.9c-1.1-1.1-2.1-2.3-3.1-3.5 1 0 2 .1 3 .1s2.1 0 3.1-.1c-.9 1.2-1.9 2.4-3 3.5zm12.3 6.5c-.4.2-.8.3-1.3.3-2.3 0-5.7-1.8-9.2-5.1 1.6-1.7 3.2-3.6 4.5-5.5 2.4-.2 4.7-.6 7-1.2.2 1.1.4 2.1.6 3.2.5 4.2-.1 7.4-1.6 8.3zm5.8-15.6c-.9.4-2 .8-3 1.1-.7-2.3-1.5-4.5-2.5-6.7 1-2.2 1.8-4.4 2.4-6.7 1.1.3 2.1.7 3.1 1.1 3.9 1.7 6.4 3.8 6.4 5.6s-2.5 3.9-6.4 5.6zM27 29c2.8 0 5-2.3 5-5 0-2.8-2.3-5-5-5-2.8 0-5 2.3-5 5 0 2.8 2.2 5 5 5z" fill="#61dafb"/></symbol><symbol viewBox="0 0 54 48" id="logo-react-native" xmlns="http://www.w3.org/2000/svg"><path d="M54 24c0-3.6-4.5-7-11.3-9.1 1.6-7 .9-12.5-2.2-14.3C39.7.2 38.8 0 38 0c-3 0-7 2.2-11 5.9C23 2.2 19 0 16 0c-.9 0-1.7.2-2.5.6C10.4 2.5 9.7 8 11.3 15 4.5 17.1 0 20.5 0 24s4.5 6.9 11.3 9.1c-1.6 7-.9 12.5 2.2 14.3.8.4 1.6.6 2.5.6 3 0 7-2.2 11-5.9 4 3.7 8 5.8 11 5.8.9 0 1.7-.2 2.5-.6 3.1-1.8 3.8-7.3 2.2-14.3 6.8-2.1 11.3-5.4 11.3-9zM38 2.4c.4 0 .9.1 1.3.3 1.5.8 2.1 4.1 1.6 8.3-.1 1-.3 2.1-.6 3.2-2.3-.5-4.6-.9-7-1.2-1.4-1.9-2.9-3.8-4.6-5.5 3.6-3.2 7-5 9.3-5.1zM17.2 29.6c.5.9 1 1.7 1.6 2.6-1.6-.2-3.1-.5-4.5-.9.4-1.4.9-2.9 1.5-4.3.5.9.9 1.8 1.4 2.6zm-2.9-12.9c1.4-.3 3-.6 4.5-.9-.5.8-1.1 1.7-1.6 2.6s-1 1.8-1.4 2.6c-.6-1.4-1.1-2.9-1.5-4.3zm2.8 7.3c.7-1.5 1.5-2.9 2.3-4.4.9-1.5 1.7-2.9 2.7-4.2 1.6-.1 3.3-.2 5-.2s3.3.1 5 .2c.9 1.3 1.8 2.7 2.7 4.2.8 1.4 1.6 2.9 2.3 4.4-.7 1.5-1.5 2.9-2.3 4.4-.9 1.5-1.7 2.9-2.7 4.2-1.6.2-3.3.2-5 .2s-3.3-.1-5-.2c-.9-1.3-1.8-2.7-2.7-4.2-.9-1.4-1.6-2.9-2.3-4.4zm19.7 5.6c.5-.9 1-1.8 1.4-2.7.6 1.5 1.1 2.9 1.5 4.4-1.4.3-3 .7-4.5.9.5-.8 1-1.7 1.6-2.6zm-.1-11.2c-.5-.9-1-1.7-1.6-2.6 1.6.2 3.1.5 4.5.9-.4 1.4-.9 2.9-1.5 4.3-.4-.9-.8-1.7-1.4-2.6zM30 12.9c-1 0-2-.1-3-.1s-2.1 0-3.1.1c.9-1.2 2-2.4 3-3.5 1.1 1.1 2.2 2.2 3.1 3.5zM14.7 2.8c.4-.2.8-.3 1.3-.3 2.3 0 5.7 1.8 9.2 5.1-1.6 1.7-3.2 3.6-4.5 5.5-2.4.2-4.7.6-7 1.2-.3-1.1-.4-2.2-.6-3.2-.5-4.2.1-7.4 1.6-8.3zm-2.8 27.9c-1.1-.3-2.1-.7-3.1-1.1C5 27.9 2.4 25.7 2.4 24s2.5-3.9 6.4-5.6c.9-.4 2-.8 3-1.1.7 2.3 1.5 4.5 2.5 6.7-.9 2.2-1.7 4.4-2.4 6.7zM16 45.6c-.4 0-.9-.1-1.2-.3-1.5-.8-2.1-4.1-1.6-8.3.1-1 .3-2.1.6-3.2 2.3.5 4.6.9 7 1.2 1.4 1.9 2.9 3.8 4.6 5.5-3.7 3.2-7.1 5.1-9.4 5.1zm11-6.9c-1.1-1.1-2.1-2.3-3.1-3.5 1 0 2 .1 3 .1s2.1 0 3.1-.1c-.9 1.2-1.9 2.4-3 3.5zm12.3 6.5c-.4.2-.8.3-1.3.3-2.3 0-5.7-1.8-9.2-5.1 1.6-1.7 3.2-3.6 4.5-5.5 2.4-.2 4.7-.6 7-1.2.2 1.1.4 2.1.6 3.2.5 4.2-.1 7.4-1.6 8.3zm5.8-15.6c-.9.4-2 .8-3 1.1-.7-2.3-1.5-4.5-2.5-6.7 1-2.2 1.8-4.4 2.4-6.7 1.1.3 2.1.7 3.1 1.1 3.9 1.7 6.4 3.8 6.4 5.6s-2.5 3.9-6.4 5.6zM27 29c2.8 0 5-2.3 5-5 0-2.8-2.3-5-5-5-2.8 0-5 2.3-5 5 0 2.8 2.2 5 5 5z" fill="#0e5ce4"/></symbol><symbol viewBox="0 0 48 48" id="logo-reason" xmlns="http://www.w3.org/2000/svg"><g fill="#dd4b39"><path d="M0 0v48h48V0H0zm23 43.6l-2.7-5.1h-3.6v5.1H12V25.3h8.2c4.9 0 7.6 2.4 7.6 6.4 0 2.8-1.1 4.8-3.3 5.9l3.9 6H23zm22.6-.1H30.9V25.3h14.5v3.8h-9.7v3.4h8.7v3.8h-8.7v3.4h9.9v3.8z"/><path d="M20.2 29.1h-3.5v5.6h3.5c1.9 0 3.1-1 3.1-2.8 0-1.8-1.1-2.8-3.1-2.8z"/></g></symbol><symbol viewBox="0 0 48 48" id="logo-typescript" xmlns="http://www.w3.org/2000/svg"><path d="M0 0v48h48V0H0zm29.4 23.1v2.2h-6.1V45h-5.1V25.3H12V21h17.4v2.1zm15 17.7c-.6 1.2-1.8 2.5-3 3.1-2.6 1.2-6.8 1.3-10.1.2l-1.2-.4v-5.2l.9.7c1.2.9 2.8 1.4 4.4 1.5 1.7.1 2.9-.2 3.6-.9.5-.4.6-.7.6-1.4 0-1.4-.8-2.1-4-3.7-2.8-1.4-3.8-2-4.6-3.3-1.9-2.7-1.3-6.9 1.2-8.8 2.3-1.4 5.8-2 9.4-1.4.8.1 1.6.4 1.9.5l.5.2v2.3c0 1.3 0 2.3-.1 2.3 0 0-.4-.2-.9-.4-1.7-1-4.4-1.3-6-.8-.4.1-1 .5-1.3.8-.4.4-.5.7-.5 1.4s.1 1 .7 1.5c.4.4 1.9 1.2 3.3 1.9 3 1.5 4.5 2.7 5.2 4.3.6 1.4.6 4.3 0 5.6z" fill="#007acc"/></symbol><symbol viewBox="0 0 6 12" id="socials_fb" xmlns="http://www.w3.org/2000/svg"><defs><style>.mcls-1{fill-rule:evenodd}</style></defs><path id="mfb" class="mcls-1" d="M1219.3 43.323v1.651h-1.3V47h1.3v6h2.66v-6h1.79s.17-.969.25-2.028h-2.03v-1.385a.614.614 0 01.58-.484h1.45V41h-1.97c-2.8 0-2.73 2.021-2.73 2.323z" transform="translate(-1218 -41)"/></symbol><symbol viewBox="0 0 21 20" id="socials_gh" xmlns="http://www.w3.org/2000/svg"><defs><style>.ncls-1{fill-rule:evenodd}</style></defs><path id="nФигура_18_копия_3" data-name="Фигура 18 копия 3" class="ncls-1" d="M948.608 3359.02l-.211.02.1.17.191-.02-.085-.17m.49.01l.043.2.211.05-.042-.21-.212-.04m.813 1.3l-.127.02-.042.13.085.16a.252.252 0 00.179.1.157.157 0 00.117-.06l.021-.12-.084-.15-.149-.08m2.733.66c-.141.03-.205.08-.19.17l.084.14.148.02a.21.21 0 00.191-.21.2.2 0 00-.233-.12m-.658 0a.173.173 0 00-.212.17c0 .1.061.14.184.14h.049a.2.2 0 00.233-.19l-.064-.08-.19-.04m-1.4 0a.144.144 0 00-.152.12l.021.11.149.1h.169l.106-.15c.014-.07-.049-.12-.191-.16a.435.435 0 00-.1-.02m4.785-15.98a10.689 10.689 0 00-5.292 1.32 9.668 9.668 0 00-3.726 3.64 9.919 9.919 0 00-1.355 5.12 10.081 10.081 0 001.99 6.13 10.194 10.194 0 005.208 3.74.816.816 0 00.209.03.488.488 0 00.32-.11.545.545 0 00.19-.42l-.042-2.52-.466.04a4.411 4.411 0 01-.714.06c-.117 0-.231-.01-.344-.01a3.164 3.164 0 01-1.228-.38 1.659 1.659 0 01-.8-.95l-.17-.33a2.993 2.993 0 00-.423-.66 2.024 2.024 0 00-.593-.53l-.212-.17a.361.361 0 01-.19-.31c.014-.1.176-.14.487-.14l.3.04a4.136 4.136 0 01.635.29 2.16 2.16 0 01.678.74c.009.02.018.03.027.05l-.07.01c-.056.02-.056.11 0 .25l.149.08h.105a.207.207 0 00.034-.03 1.957 1.957 0 001.448.75 1.251 1.251 0 00.273.02 2.776 2.776 0 001.124-.26 2.235 2.235 0 01.678-1.41 11.844 11.844 0 01-2.287-.41 3.455 3.455 0 01-1.778-1.28 5.248 5.248 0 01-.677-2.89 3.167 3.167 0 01.233-1.3 5.288 5.288 0 01.741-1.14 2.291 2.291 0 01-.17-.95 3.779 3.779 0 01.3-1.82 1.034 1.034 0 01.263-.03 2.716 2.716 0 01.88.2 9.7 9.7 0 011.228.58l.55.37a9.3 9.3 0 012.646-.37 9.745 9.745 0 012.689.37l.55-.37a11.84 11.84 0 011.185-.58 2.746 2.746 0 01.9-.2 1.24 1.24 0 01.285.03 4.6 4.6 0 01.3 1.82 3.161 3.161 0 01-.211.99 4.9 4.9 0 01.8 1.04 2.927 2.927 0 01.3 1.36 5.183 5.183 0 01-.72 2.93 3.841 3.841 0 01-1.821 1.24 11.949 11.949 0 01-2.328.41 2.308 2.308 0 01.719 1.9v3.47a.546.546 0 00.191.42.487.487 0 00.32.11.816.816 0 00.209-.03 10.306 10.306 0 007.113-9.87 9.714 9.714 0 00-1.44-5.17 9.984 9.984 0 00-3.852-3.59 11.092 11.092 0 00-5.335-1.32" transform="translate(-945 -3345)"/></symbol><symbol viewBox="0 0 15.07 12" id="socials_med" xmlns="http://www.w3.org/2000/svg"><defs><style>.ocls-1{fill-rule:evenodd}</style></defs><path id="omedium" class="ocls-1" d="M1301.64 43.74h-.59a.675.675 0 00-.53.526V51.7a.63.63 0 00.53.486h.59v1.765h-5.39V52.19h1.13v-7.82h-.05l-2.64 9.585h-2.04l-2.6-9.585h-.07v7.82h1.13v1.765h-4.51V52.19h.58a.642.642 0 00.55-.486v-7.439a.686.686 0 00-.55-.526h-.58v-1.765h5.64l1.86 6.937h.05l1.87-6.937h5.62v1.766z" transform="translate(-1286.59 -41.969)"/></symbol><symbol viewBox="0 0 14.216 14.219" id="socials_sl" xmlns="http://www.w3.org/2000/svg"><defs><style>.pcls-1{fill-rule:evenodd}</style></defs><path id="pskack" class="pcls-1" d="M998.762 40.47c4.888-1.466 7.008-.326 8.468 4.562s.33 7.006-4.56 8.472-7 .326-8.47-4.562-.326-7.006 4.562-8.472zm5.078 8.043l.92-.307a.738.738 0 10-.47-1.4l-.92.309-.61-1.83.92-.308a.738.738 0 10-.47-1.4l-.92.309-.32-.954a.738.738 0 00-1.4.468l.32.954-1.9.637-.318-.954a.738.738 0 00-1.4.469l.319.953-.922.308a.738.738 0 00.215 1.437.729.729 0 00.254-.038l.922-.31.612 1.829-.918.315a.737.737 0 00.215 1.436.706.706 0 00.253-.037l.922-.308.319.953a.737.737 0 00.677.5.786.786 0 00.26-.038.74.74 0 00.46-.934l-.32-.953 1.9-.637.32.954a.737.737 0 00.68.5.768.768 0 00.26-.038.738.738 0 00.46-.932zm-1.89-.909l-1.85.617-.617-1.851 1.847-.617z" transform="translate(-993.594 -39.875)"/></symbol><symbol viewBox="0 0 14.96 12" id="socials_tw" xmlns="http://www.w3.org/2000/svg"><defs><style>.qcls-1{fill-rule:evenodd}</style></defs><path id="qtw" class="qcls-1" d="M1080.31 43a1.654 1.654 0 01.03.375 8.5 8.5 0 01-1.03 4.01 8.241 8.241 0 01-2.95 3.259 8.5 8.5 0 01-4.77 1.356 8.638 8.638 0 01-4.71-1.356c.22.02.46.029.74.029a6.145 6.145 0 003.83-1.3 2.857 2.857 0 01-1.8-.592 3.028 3.028 0 01-1.07-1.485c.2.019.38.028.56.028a3.838 3.838 0 00.81-.086 3.108 3.108 0 01-1.75-1.067 2.868 2.868 0 01-.7-1.9v-.06a2.931 2.931 0 001.37.4 3.316 3.316 0 01-.99-1.1 2.91 2.91 0 01-.38-1.456 2.8 2.8 0 01.44-1.514 8.45 8.45 0 002.79 2.25 8.6 8.6 0 003.52.923 4.034 4.034 0 01-.05-.693 3 3 0 01.4-1.515 3.048 3.048 0 011.12-1.11 3.071 3.071 0 012.76-.144 3.454 3.454 0 011.01.691 6.364 6.364 0 001.96-.72 3.017 3.017 0 01-1.35 1.672 6.707 6.707 0 001.76-.49 6.82 6.82 0 01-1.55 1.595z" transform="translate(-1066.88 -40)"/></symbol><symbol viewBox="0 0 16 16" id="socials_web" xmlns="http://www.w3.org/2000/svg"><path d="M13.7 2.3C15.2 3.9 16 5.9 16 8s-.8 4.1-2.3 5.7C12.1 15.2 10.1 16 8 16s-4.1-.8-5.7-2.3C.8 12.1 0 10.1 0 8s.8-4.1 2.3-5.7S5.9 0 8 0s4.1.8 5.7 2.3zm-.8 10.6c1-1 1.6-2.2 1.9-3.5-.2.3-.4.4-.5-.3-.1-1.1-1.2-.4-1.8-.8-.7.5-2.2-.9-2 .6.4.7 2.2-.9 1.3.5-.6 1-2.1 3.3-1.9 4.5 0 1.7-1.8.4-2.4-.2-.4-1.1-.1-3.1-1.2-3.7-1.1 0-2.1-.1-2.6-1.4-.2-.9.3-2.3 1.3-2.5 1.5-.9 2 1.1 3.4 1.1.4-.4 1.6-.6 1.7-1.1-.9-.2 1.1-.8-.1-1.1-.7.1-1.1.7-.7 1.2-1.4.3-1.4-1.9-2.7-1.2 0 1.1-2.1.4-.7.1.5-.1-.7-.7-.1-.6.3 0 1.4-.4 1.1-.7.6-.4 1.1.9 1.7 0 .5-.7-.1-.9-.6-.5-.3-.4.5-1.1 1.2-1.4.2-.1.5-.2.7-.1.4.4 1.1.4 1.1-.1-.9-.5-1.9-.7-3-.7-1.5 0-3 .5-4.2 1.4.3.1.5.3.2.5-.2.8-1.2 1.7-2.1 1.6-.4.8-.7 1.6-.8 2.5.7.2.9.7.7.9-.4.3-.6.7-.7 1.2.2 1.4.9 2.8 2 3.8C4.4 14.3 6.1 15 8 15c1.9 0 3.6-.7 4.9-2.1z"/></symbol><symbol viewBox="0 0 17 12" id="socials_yt" xmlns="http://www.w3.org/2000/svg"><defs><style>.scls-1{fill-rule:evenodd}</style></defs><path id="syt" class="scls-1" d="M1145.74 48.212v-4.793l4.59 2.4zm10.08-5.625a3.786 3.786 0 00-.67-1.693 2.424 2.424 0 00-1.71-.722c-2.37-.172-5.94-.172-5.94-.172h-.01s-3.57 0-5.94.173a2.424 2.424 0 00-1.71.722 3.663 3.663 0 00-.67 1.693 25.915 25.915 0 00-.17 2.761v1.295a25.912 25.912 0 00.17 2.762 3.664 3.664 0 00.67 1.693 2.885 2.885 0 001.88.729c1.36.131 5.77.172 5.77.172s3.58-.006 5.95-.177a2.441 2.441 0 001.71-.723 3.787 3.787 0 00.67-1.693 25.912 25.912 0 00.17-2.762v-1.296a25.915 25.915 0 00-.17-2.762z" transform="translate(-1139 -40)"/></symbol></svg>