<?xml version="1.0" encoding="utf-8"?>
<!-- Generator: Adobe Illustrator 22.1.0, SVG Export Plug-In . SVG Version: 6.00 Build 0)  -->
<svg version="1.1" id="Layer_1" xmlns="http://www.w3.org/2000/svg" xmlns:xlink="http://www.w3.org/1999/xlink" x="0px" y="0px"
	 width="129px" height="135px" viewBox="0 0 129 135" style="enable-background:new 0 0 129 135;" xml:space="preserve">
<g>
	<path d="M129,0c0,0-0.361,2.7-3.247,2.7s-6.134,13.14-6.315,13.86l-21.29,101.88c-0.18,0.72-3.067,13.86,0,13.86
		c2.707,0,1.805,2.7,1.805,2.7H75.415L62.786,44.64l-12.449,73.8c-0.181,0.72-2.887,13.86,0,13.86c2.706,0,1.804,2.7,1.804,2.7
		h-30.13c0,0-0.722-2.7,1.984-2.7c3.067,0,0.903-13.5,0.722-13.86L8.66,16.56C8.48,16.2,5.954,2.7,2.887,2.7C0.181,2.7,0,0,0,0
		h29.589c0,0,0.721,2.7-1.985,2.7c-3.067,0-0.902,13.14-0.722,13.86l14.253,91.26c0,0,16.418-91.44,16.418-91.8
		c-0.541-2.7-2.887-13.32-5.413-13.32c-2.887,0-3.067-2.7-3.067-2.7H73.07l15.697,107.82l18.944-91.26
		c0.181-0.36,3.067-13.86,0-13.86c-2.706,0-1.804-2.7-1.804-2.7H129z"/>
</g>
</svg>
