<?xml version="1.0" encoding="utf-8"?>
<!-- Generator: Adobe Illustrator 22.1.0, SVG Export Plug-In . SVG Version: 6.00 Build 0)  -->
<svg version="1.1" id="Layer_1" xmlns="http://www.w3.org/2000/svg" xmlns:xlink="http://www.w3.org/1999/xlink" x="0px" y="0px"
	 width="54px" height="120px" viewBox="0 0 54 120" style="enable-background:new 0 0 54 120;" xml:space="preserve">
<g>
	<path d="M54,24.8v70.4c0.2,13.4-12.9,24.6-27.1,24.8C12.6,119.7,0,108.6,0,95.2V24.8C0,11.2,12.7,0.3,27.2,0h0.2
		C41.6,0.5,54,11.4,54,24.8z M37.9,24.8c0-7.4-4.9-13.6-10.8-17c-6.1,3.2-11,9.6-11,17v70.4c0,7.4,4.9,13.8,10.8,17
		c6.1-3.2,11-9.6,11-17V24.8z M27.1,26.1c0,0-2.1,15.5-2.1,34.7c0,19.2,2.1,34.7,2.1,34.7S29,80,29,60.8
		C29,41.6,27.1,26.1,27.1,26.1z"/>
</g>
</svg>
